<svg xmlns="http://www.w3.org/2000/svg" width="29.425" height="23.908" viewBox="0 0 29.425 23.908"><defs><style>.a{fill:#fff;}</style></defs><path class="a" d="M29.425,50.83a12.577,12.577,0,0,1-3.476.953A6,6,0,0,0,28.6,48.449a12.056,12.056,0,0,1-3.825,1.46,6.032,6.032,0,0,0-10.435,4.125,6.211,6.211,0,0,0,.14,1.376A17.075,17.075,0,0,1,2.049,49.1,6.034,6.034,0,0,0,3.9,57.162a5.957,5.957,0,0,1-2.726-.743v.066A6.06,6.06,0,0,0,6.01,62.413a6.021,6.021,0,0,1-1.582.2,5.334,5.334,0,0,1-1.142-.1,6.09,6.09,0,0,0,5.637,4.2,12.121,12.121,0,0,1-7.48,2.573A11.3,11.3,0,0,1,0,69.2a16.983,16.983,0,0,0,9.254,2.707c11.1,0,17.17-9.2,17.17-17.166,0-.267-.009-.524-.022-.78A12.034,12.034,0,0,0,29.425,50.83Z" transform="translate(0 -48)"/></svg>