<svg xmlns="http://www.w3.org/2000/svg" width="24.207" height="24.207" viewBox="0 0 24.207 24.207"><defs><style>.a{fill:#fff;}</style></defs><path class="a" d="M12.107,0H12.1A12.1,12.1,0,0,0,2.3,19.2L.8,23.694l4.652-1.487A12.1,12.1,0,1,0,12.107,0Zm7.043,17.092A3.415,3.415,0,0,1,16.774,18.8c-.632.135-1.458.242-4.239-.911C8.978,16.415,6.687,12.8,6.509,12.567A6.913,6.913,0,0,1,5.071,8.916,3.864,3.864,0,0,1,6.309,5.97a1.759,1.759,0,0,1,1.238-.434c.15,0,.284.008.405.014.356.015.534.036.769.6.292.7,1,2.44,1.088,2.619a.72.72,0,0,1,.051.655,2.092,2.092,0,0,1-.392.555c-.179.206-.348.363-.527.584-.163.192-.348.4-.142.753a10.743,10.743,0,0,0,1.964,2.44A8.9,8.9,0,0,0,13.6,15.5a.765.765,0,0,0,.853-.135,14.644,14.644,0,0,0,.946-1.253.676.676,0,0,1,.868-.263c.327.113,2.056.968,2.412,1.145s.59.263.676.413A3.014,3.014,0,0,1,19.149,17.092Z"/></svg>