<svg xmlns="http://www.w3.org/2000/svg" width="12.827" height="20.355" viewBox="0 0 12.827 20.355"><defs><style>.a{fill:#fff;}</style></defs><g transform="translate(-71.6)"><g transform="translate(71.6)"><path class="a" d="M83.859.57v0A1.926,1.926,0,0,0,82.494,0H73.53A1.937,1.937,0,0,0,71.6,1.93V18.422a1.938,1.938,0,0,0,1.93,1.932H82.5a1.938,1.938,0,0,0,1.93-1.93V1.932A1.926,1.926,0,0,0,83.859.57ZM78.013,19.045h0a.521.521,0,1,1,.521-.521A.521.521,0,0,1,78.013,19.045Zm4.881-3.274a1.262,1.262,0,0,1-1.262,1.262h-7.24a1.262,1.262,0,0,1-1.262-1.262V3.48a1.262,1.262,0,0,1,1.262-1.262h7.242A1.262,1.262,0,0,1,82.9,3.48Z" transform="translate(-71.6)"/></g></g></svg>