<svg xmlns="http://www.w3.org/2000/svg" width="27.732" height="26.526" viewBox="0 0 27.732 26.526"><g transform="translate(0 -10.666)"><g transform="translate(19.292 31.163)"><path d="M344.348,373.333a3.014,3.014,0,1,0,3.014,3.014A3.018,3.018,0,0,0,344.348,373.333Zm0,4.823a1.809,1.809,0,1,1,1.809-1.809A1.811,1.811,0,0,1,344.348,378.156Z" transform="translate(-341.334 -373.333)"/></g><g transform="translate(7.234 31.163)"><path d="M131.014,373.333a3.014,3.014,0,1,0,3.014,3.014A3.018,3.018,0,0,0,131.014,373.333Zm0,4.823a1.809,1.809,0,1,1,1.809-1.809A1.811,1.811,0,0,1,131.014,378.156Z" transform="translate(-128 -373.333)"/></g><g transform="translate(0 10.666)"><path d="M24.717,28.752H10.8a3.022,3.022,0,0,1-2.955-2.424L4.811,11.151a.6.6,0,0,0-.591-.485H.6a.6.6,0,1,0,0,1.206H3.726L6.664,26.566A4.232,4.232,0,0,0,10.8,29.958H24.717a.6.6,0,1,0,0-1.206Z" transform="translate(0 -10.666)"/></g><g transform="translate(4.823 14.283)"><g transform="translate(0 0)"><path d="M108.091,74.871a.6.6,0,0,0-.452-.2h-21.7a.6.6,0,1,0,0,1.206h21.021l-.857,6.856a1.812,1.812,0,0,1-1.8,1.584H87.744a.6.6,0,1,0,0,1.206H104.3a3.019,3.019,0,0,0,2.991-2.641l.942-7.533A.6.6,0,0,0,108.091,74.871Z" transform="translate(-85.333 -74.667)"/></g></g></g></svg>